<?xml version="1.0" encoding="UTF-8" standalone="no"?><svg xmlns="http://www.w3.org/2000/svg" xmlns:xlink="http://www.w3.org/1999/xlink" contentScriptType="application/ecmascript" contentStyleType="text/css" height="1059px" preserveAspectRatio="none" style="width:838px;height:1059px;" version="1.1" viewBox="0 0 838 1059" width="838px" zoomAndPan="magnify"><defs><filter height="300%" id="fzr038t2ziqcw" width="300%" x="-1" y="-1"><feGaussianBlur result="blurOut" stdDeviation="2.0"/><feColorMatrix in="blurOut" result="blurOut2" type="matrix" values="0 0 0 0 0 0 0 0 0 0 0 0 0 0 0 0 0 0 .4 0"/><feOffset dx="4.0" dy="4.0" in="blurOut2" result="blurOut3"/><feBlend in="SourceGraphic" in2="blurOut3" mode="normal"/></filter></defs><g><!--MD5=[78415ad0d6883675a411c902fe889b3a]
class DynamicObstacleListener--><rect fill="#CCCCCC" filter="url(#fzr038t2ziqcw)" height="464.5547" id="DynamicObstacleListener" style="stroke: #AAAAAA; stroke-width: 1.5;" width="334" x="124.5" y="584"/><ellipse cx="216.5" cy="597" fill="#1A66C2" rx="8" ry="8" style="stroke: #AAAAAA; stroke-width: 1.0;"/><path d="M219.375,600.4219 Q218.7969,600.7031 218.1719,600.8594 Q217.5625,601 216.8906,601 Q214.8906,601 213.7188,599.9219 Q212.5469,598.8438 212.5469,597 Q212.5469,595.1406 213.7188,594.0781 Q214.8906,593 216.8906,593 Q217.5625,593 218.1719,593.1563 Q218.7969,593.2969 219.375,593.5781 L219.375,595.1719 Q218.7969,594.8125 218.2344,594.6406 Q217.6719,594.4531 217.0625,594.4531 Q215.9531,594.4531 215.3125,595.1406 Q214.6875,595.8125 214.6875,597 Q214.6875,598.1875 215.3125,598.8594 Q215.9531,599.5313 217.0625,599.5313 Q217.6719,599.5313 218.2344,599.3594 Q218.7969,599.1719 219.375,598.8125 L219.375,600.4219 Z "/><text fill="#000000" font-family="Verdana" font-size="11" lengthAdjust="spacingAndGlyphs" textLength="143" x="232.5" y="600.8081">DynamicObstacleListener</text><line style="stroke: #AAAAAA; stroke-width: 1.5;" x1="125.5" x2="457.5" y1="610" y2="610"/><rect fill="none" height="6" style="stroke: #C82930; stroke-width: 1.0;" width="6" x="132.5" y="618"/><text fill="#333333" font-family="sans-serif" font-size="11" lengthAdjust="spacingAndGlyphs" textLength="125" x="141.5" y="624.2104">body_received_ : bool</text><rect fill="none" height="6" style="stroke: #C82930; stroke-width: 1.0;" width="6" x="132.5" y="630.8047"/><text fill="#333333" font-family="sans-serif" font-size="11" lengthAdjust="spacingAndGlyphs" textLength="146" x="141.5" y="637.0151">ready_to_continue_ : bool</text><rect fill="none" height="6" style="stroke: #C82930; stroke-width: 1.0;" width="6" x="132.5" y="643.6094"/><text fill="#333333" font-family="sans-serif" font-size="11" lengthAdjust="spacingAndGlyphs" textLength="83" x="141.5" y="649.8198">paused_ : bool</text><text fill="#333333" font-family="sans-serif" font-size="11" lengthAdjust="spacingAndGlyphs" textLength="0" x="145.5" y="662.6245"/><rect fill="none" height="6" style="stroke: #C82930; stroke-width: 1.0;" width="6" x="132.5" y="669.2188"/><text fill="#333333" font-family="sans-serif" font-size="11" lengthAdjust="spacingAndGlyphs" textLength="85" x="141.5" y="675.4292">backOff_ : bool</text><rect fill="none" height="6" style="stroke: #C82930; stroke-width: 1.0;" width="6" x="132.5" y="682.0234"/><text fill="#333333" font-family="sans-serif" font-size="11" lengthAdjust="spacingAndGlyphs" textLength="165" x="141.5" y="688.2339">human_dist_decrease_ : bool</text><rect fill="none" height="6" style="stroke: #C82930; stroke-width: 1.0;" width="6" x="132.5" y="694.8281"/><text fill="#333333" font-family="sans-serif" font-size="11" lengthAdjust="spacingAndGlyphs" textLength="176" x="141.5" y="701.0386">body_not_received_count_ : int</text><rect fill="none" height="6" style="stroke: #C82930; stroke-width: 1.0;" width="6" x="132.5" y="707.6328"/><text fill="#333333" font-family="sans-serif" font-size="11" lengthAdjust="spacingAndGlyphs" textLength="98" x="141.5" y="713.8433">pxl_lknee_x_ : int</text><rect fill="none" height="6" style="stroke: #C82930; stroke-width: 1.0;" width="6" x="132.5" y="720.4375"/><text fill="#333333" font-family="sans-serif" font-size="11" lengthAdjust="spacingAndGlyphs" textLength="98" x="141.5" y="726.6479">pxl_lknee_y_ : int</text><text fill="#333333" font-family="sans-serif" font-size="11" lengthAdjust="spacingAndGlyphs" textLength="0" x="145.5" y="739.4526"/><rect fill="none" height="6" style="stroke: #C82930; stroke-width: 1.0;" width="6" x="132.5" y="746.0469"/><text fill="#333333" font-family="sans-serif" font-size="11" lengthAdjust="spacingAndGlyphs" textLength="235" x="141.5" y="752.2573">navigationManager_ : NavigationManager</text><text fill="#333333" font-family="sans-serif" font-size="11" lengthAdjust="spacingAndGlyphs" textLength="0" x="145.5" y="765.062"/><rect fill="none" height="6" style="stroke: #C82930; stroke-width: 1.0;" width="6" x="132.5" y="771.6563"/><text fill="#333333" font-family="sans-serif" font-size="11" lengthAdjust="spacingAndGlyphs" textLength="171" x="141.5" y="777.8667">lfeNavLogger_ : LfeNavLogger</text><rect fill="none" height="6" style="stroke: #C82930; stroke-width: 1.0;" width="6" x="132.5" y="784.4609"/><text fill="#333333" font-family="sans-serif" font-size="11" lengthAdjust="spacingAndGlyphs" textLength="184" x="141.5" y="790.6714">human_robot_distance_ : double</text><rect fill="none" height="6" style="stroke: #C82930; stroke-width: 1.0;" width="6" x="132.5" y="797.2656"/><text fill="#333333" font-family="sans-serif" font-size="11" lengthAdjust="spacingAndGlyphs" textLength="156" x="141.5" y="803.4761">current_robot_vel_ : double</text><rect fill="none" height="6" style="stroke: #C82930; stroke-width: 1.0;" width="6" x="132.5" y="810.0703"/><text fill="#333333" font-family="sans-serif" font-size="11" lengthAdjust="spacingAndGlyphs" textLength="201" x="141.5" y="816.2808">human_dist_seq_ : vector&lt;double&gt;</text><rect fill="none" height="6" style="stroke: #C82930; stroke-width: 1.0;" width="6" x="132.5" y="822.875"/><text fill="#333333" font-family="sans-serif" font-size="11" lengthAdjust="spacingAndGlyphs" textLength="232" x="141.5" y="829.0854">human_dist_time_seq_ : vector&lt;double&gt;</text><rect fill="none" height="6" style="stroke: #C82930; stroke-width: 1.0;" width="6" x="132.5" y="835.6797"/><text fill="#333333" font-family="sans-serif" font-size="11" lengthAdjust="spacingAndGlyphs" textLength="189" x="141.5" y="841.8901">robot_vel_seq_ : vector&lt;double&gt;</text><rect fill="none" height="6" style="stroke: #C82930; stroke-width: 1.0;" width="6" x="132.5" y="848.4844"/><text fill="#333333" font-family="sans-serif" font-size="11" lengthAdjust="spacingAndGlyphs" textLength="224" x="141.5" y="854.6948">human_mc_dist_seq_ : vector&lt;double&gt;</text><rect fill="none" height="6" style="stroke: #C82930; stroke-width: 1.0;" width="6" x="132.5" y="861.2891"/><text fill="#333333" font-family="sans-serif" font-size="11" lengthAdjust="spacingAndGlyphs" textLength="255" x="141.5" y="867.4995">human_mc_dist_time_seq_ : vector&lt;double&gt;</text><text fill="#333333" font-family="sans-serif" font-size="11" lengthAdjust="spacingAndGlyphs" textLength="0" x="145.5" y="880.3042"/><rect fill="none" height="6" style="stroke: #C82930; stroke-width: 1.0;" width="6" x="132.5" y="886.8984"/><text fill="#333333" font-family="sans-serif" font-size="11" lengthAdjust="spacingAndGlyphs" textLength="110" x="141.5" y="893.1089">cfg_ : LfeNavConfig</text><rect fill="none" height="6" style="stroke: #C82930; stroke-width: 1.0;" width="6" x="132.5" y="899.7031"/><text fill="#333333" font-family="sans-serif" font-size="11" lengthAdjust="spacingAndGlyphs" textLength="311" x="141.5" y="905.9136">reconfigure_server_ : shared_ptr&lt;ReconfigureServer&gt;</text><rect fill="none" height="6" style="stroke: #C82930; stroke-width: 1.0;" width="6" x="132.5" y="912.5078"/><text fill="#333333" font-family="sans-serif" font-size="11" lengthAdjust="spacingAndGlyphs" textLength="99" x="141.5" y="918.7183">config_init_ : bool</text><rect fill="none" height="6" style="stroke: #C82930; stroke-width: 1.0;" width="6" x="132.5" y="925.3125"/><text fill="#333333" font-family="sans-serif" font-size="11" lengthAdjust="spacingAndGlyphs" textLength="222" x="141.5" y="931.5229">avg_img_depth_seq_ : vector&lt;double&gt;</text><line style="stroke: #AAAAAA; stroke-width: 1.5;" x1="125.5" x2="457.5" y1="938.1172" y2="938.1172"/><rect fill="#F24D5C" height="6" style="stroke: #C82930; stroke-width: 1.0;" width="6" x="132.5" y="946.1172"/><text fill="#333333" font-family="sans-serif" font-size="11" lengthAdjust="spacingAndGlyphs" textLength="120" x="141.5" y="952.3276">setMotionCue() : void</text><rect fill="#F24D5C" height="6" style="stroke: #C82930; stroke-width: 1.0;" width="6" x="132.5" y="958.9219"/><text fill="#333333" font-family="sans-serif" font-size="11" lengthAdjust="spacingAndGlyphs" textLength="130" x="141.5" y="965.1323">subscriberLoop() : void</text><rect fill="#F24D5C" height="6" style="stroke: #C82930; stroke-width: 1.0;" width="6" x="132.5" y="971.7266"/><text fill="#333333" font-family="sans-serif" font-size="11" lengthAdjust="spacingAndGlyphs" textLength="68" x="141.5" y="977.937">loop() : void</text><rect fill="#F24D5C" height="6" style="stroke: #C82930; stroke-width: 1.0;" width="6" x="132.5" y="984.5313"/><text fill="#333333" font-family="sans-serif" font-size="11" lengthAdjust="spacingAndGlyphs" textLength="165" x="141.5" y="990.7417">newBodyMsgCallback() : void</text><rect fill="#F24D5C" height="6" style="stroke: #C82930; stroke-width: 1.0;" width="6" x="132.5" y="997.3359"/><text fill="#333333" font-family="sans-serif" font-size="11" lengthAdjust="spacingAndGlyphs" textLength="159" x="141.5" y="1003.5464">newVelocityCallback() : void</text><rect fill="#F24D5C" height="6" style="stroke: #C82930; stroke-width: 1.0;" width="6" x="132.5" y="1010.1406"/><text fill="#333333" font-family="sans-serif" font-size="11" lengthAdjust="spacingAndGlyphs" textLength="147" x="141.5" y="1016.3511">newDepthCallback() : void</text><rect fill="#F24D5C" height="6" style="stroke: #C82930; stroke-width: 1.0;" width="6" x="132.5" y="1022.9453"/><text fill="#333333" font-family="sans-serif" font-size="11" lengthAdjust="spacingAndGlyphs" textLength="93" x="141.5" y="1029.1558">configCb() : void</text><rect fill="#F24D5C" height="6" style="stroke: #C82930; stroke-width: 1.0;" width="6" x="132.5" y="1035.75"/><text fill="#333333" font-family="sans-serif" font-size="11" lengthAdjust="spacingAndGlyphs" textLength="148" x="141.5" y="1041.9604">executeMotionCue() : void</text><!--MD5=[dd8d7bf5c400637f081a23b0acb44ed5]
class NavigationManager--><rect fill="#CCCCCC" filter="url(#fzr038t2ziqcw)" height="259.6797" id="NavigationManager" style="stroke: #AAAAAA; stroke-width: 1.5;" width="157" x="6" y="264"/><ellipse cx="27.9" cy="277" fill="#1A66C2" rx="8" ry="8" style="stroke: #AAAAAA; stroke-width: 1.0;"/><path d="M30.775,280.4219 Q30.1969,280.7031 29.5719,280.8594 Q28.9625,281 28.2906,281 Q26.2906,281 25.1188,279.9219 Q23.9469,278.8438 23.9469,277 Q23.9469,275.1406 25.1188,274.0781 Q26.2906,273 28.2906,273 Q28.9625,273 29.5719,273.1563 Q30.1969,273.2969 30.775,273.5781 L30.775,275.1719 Q30.1969,274.8125 29.6344,274.6406 Q29.0719,274.4531 28.4625,274.4531 Q27.3531,274.4531 26.7125,275.1406 Q26.0875,275.8125 26.0875,277 Q26.0875,278.1875 26.7125,278.8594 Q27.3531,279.5313 28.4625,279.5313 Q29.0719,279.5313 29.6344,279.3594 Q30.1969,279.1719 30.775,278.8125 L30.775,280.4219 Z "/><text fill="#000000" font-family="Verdana" font-size="11" lengthAdjust="spacingAndGlyphs" textLength="109" x="41.1" y="280.8081">NavigationManager</text><line style="stroke: #AAAAAA; stroke-width: 1.5;" x1="7" x2="162" y1="290" y2="290"/><rect fill="none" height="6" style="stroke: #C82930; stroke-width: 1.0;" width="6" x="14" y="298"/><text fill="#333333" font-family="sans-serif" font-size="11" lengthAdjust="spacingAndGlyphs" textLength="63" x="23" y="304.2104">count_ : int</text><rect fill="none" height="6" style="stroke: #C82930; stroke-width: 1.0;" width="6" x="14" y="310.8047"/><text fill="#333333" font-family="sans-serif" font-size="11" lengthAdjust="spacingAndGlyphs" textLength="83" x="23" y="317.0151">paused_ : bool</text><rect fill="none" height="6" style="stroke: #C82930; stroke-width: 1.0;" width="6" x="14" y="323.6094"/><text fill="#333333" font-family="sans-serif" font-size="11" lengthAdjust="spacingAndGlyphs" textLength="112" x="23" y="329.8198">sendingGoal_ : bool</text><rect fill="none" height="6" style="stroke: #C82930; stroke-width: 1.0;" width="6" x="14" y="336.4141"/><text fill="#333333" font-family="sans-serif" font-size="11" lengthAdjust="spacingAndGlyphs" textLength="134" x="23" y="342.6245">pub_vel_bo_ : Publisher</text><text fill="#333333" font-family="sans-serif" font-size="11" lengthAdjust="spacingAndGlyphs" textLength="0" x="27" y="355.4292"/><rect fill="none" height="6" style="stroke: #C82930; stroke-width: 1.0;" width="6" x="14" y="362.0234"/><text fill="#333333" font-family="sans-serif" font-size="11" lengthAdjust="spacingAndGlyphs" textLength="121" x="23" y="368.2339">ac_ : MoveBaseClient</text><rect fill="none" height="6" style="stroke: #C82930; stroke-width: 1.0;" width="6" x="14" y="374.8281"/><text fill="#333333" font-family="sans-serif" font-size="11" lengthAdjust="spacingAndGlyphs" textLength="133" x="23" y="381.0386">goal1_ : MoveBaseGoal</text><rect fill="none" height="6" style="stroke: #C82930; stroke-width: 1.0;" width="6" x="14" y="387.6328"/><text fill="#333333" font-family="sans-serif" font-size="11" lengthAdjust="spacingAndGlyphs" textLength="133" x="23" y="393.8433">goal2_ : MoveBaseGoal</text><rect fill="none" height="6" style="stroke: #C82930; stroke-width: 1.0;" width="6" x="14" y="400.4375"/><text fill="#333333" font-family="sans-serif" font-size="11" lengthAdjust="spacingAndGlyphs" textLength="133" x="23" y="406.6479">goal3_ : MoveBaseGoal</text><line style="stroke: #AAAAAA; stroke-width: 1.5;" x1="7" x2="162" y1="413.2422" y2="413.2422"/><ellipse cx="17" cy="424.2422" fill="#84BE84" rx="3" ry="3" style="stroke: #038048; stroke-width: 1.0;"/><text fill="#333333" font-family="sans-serif" font-size="11" lengthAdjust="spacingAndGlyphs" textLength="97" x="23" y="427.4526">sendGoal() : void</text><ellipse cx="17" cy="437.0469" fill="#84BE84" rx="3" ry="3" style="stroke: #038048; stroke-width: 1.0;"/><text fill="#333333" font-family="sans-serif" font-size="11" lengthAdjust="spacingAndGlyphs" textLength="94" x="23" y="440.2573">stopGoal() : void</text><ellipse cx="17" cy="449.8516" fill="#84BE84" rx="3" ry="3" style="stroke: #038048; stroke-width: 1.0;"/><text fill="#333333" font-family="sans-serif" font-size="11" lengthAdjust="spacingAndGlyphs" textLength="87" x="23" y="453.062">backOff() : void</text><ellipse cx="17" cy="462.6563" fill="#84BE84" rx="3" ry="3" style="stroke: #038048; stroke-width: 1.0;"/><text fill="#333333" font-family="sans-serif" font-size="11" lengthAdjust="spacingAndGlyphs" textLength="118" x="23" y="465.8667">continueGoal() : void</text><text fill="#333333" font-family="sans-serif" font-size="11" lengthAdjust="spacingAndGlyphs" textLength="0" x="27" y="478.6714"/><ellipse cx="17" cy="488.2656" fill="#84BE84" rx="3" ry="3" style="stroke: #038048; stroke-width: 1.0;"/><text fill="#333333" font-family="sans-serif" font-size="11" lengthAdjust="spacingAndGlyphs" textLength="94" x="23" y="491.4761">setGoal1() : void</text><ellipse cx="17" cy="501.0703" fill="#84BE84" rx="3" ry="3" style="stroke: #038048; stroke-width: 1.0;"/><text fill="#333333" font-family="sans-serif" font-size="11" lengthAdjust="spacingAndGlyphs" textLength="94" x="23" y="504.2808">setGoal2() : void</text><ellipse cx="17" cy="513.875" fill="#84BE84" rx="3" ry="3" style="stroke: #038048; stroke-width: 1.0;"/><text fill="#333333" font-family="sans-serif" font-size="11" lengthAdjust="spacingAndGlyphs" textLength="94" x="23" y="517.0854">setGoal3() : void</text><!--MD5=[f627610780897c496fca4ba579acc383]
class LfeNavLogger--><rect fill="#CCCCCC" filter="url(#fzr038t2ziqcw)" height="259.6797" id="LfeNavLogger" style="stroke: #AAAAAA; stroke-width: 1.5;" width="187" x="198" y="264"/><ellipse cx="249" cy="277" fill="#1A66C2" rx="8" ry="8" style="stroke: #AAAAAA; stroke-width: 1.0;"/><path d="M251.875,280.4219 Q251.2969,280.7031 250.6719,280.8594 Q250.0625,281 249.3906,281 Q247.3906,281 246.2188,279.9219 Q245.0469,278.8438 245.0469,277 Q245.0469,275.1406 246.2188,274.0781 Q247.3906,273 249.3906,273 Q250.0625,273 250.6719,273.1563 Q251.2969,273.2969 251.875,273.5781 L251.875,275.1719 Q251.2969,274.8125 250.7344,274.6406 Q250.1719,274.4531 249.5625,274.4531 Q248.4531,274.4531 247.8125,275.1406 Q247.1875,275.8125 247.1875,277 Q247.1875,278.1875 247.8125,278.8594 Q248.4531,279.5313 249.5625,279.5313 Q250.1719,279.5313 250.7344,279.3594 Q251.2969,279.1719 251.875,278.8125 L251.875,280.4219 Z "/><text fill="#000000" font-family="Verdana" font-size="11" lengthAdjust="spacingAndGlyphs" textLength="78" x="265" y="280.8081">LfeNavLogger</text><line style="stroke: #AAAAAA; stroke-width: 1.5;" x1="199" x2="384" y1="290" y2="290"/><rect fill="none" height="6" style="stroke: #C82930; stroke-width: 1.0;" width="6" x="206" y="298"/><text fill="#333333" font-family="sans-serif" font-size="11" lengthAdjust="spacingAndGlyphs" textLength="144" x="215" y="304.2104">bo_log_msg_ : BOLogMsg</text><rect fill="none" height="6" style="stroke: #C82930; stroke-width: 1.0;" width="6" x="206" y="310.8047"/><text fill="#333333" font-family="sans-serif" font-size="11" lengthAdjust="spacingAndGlyphs" textLength="137" x="215" y="317.0151">st_log_msg_ : STLogMsg</text><text fill="#333333" font-family="sans-serif" font-size="11" lengthAdjust="spacingAndGlyphs" textLength="0" x="219" y="329.8198"/><rect fill="none" height="6" style="stroke: #C82930; stroke-width: 1.0;" width="6" x="206" y="336.4141"/><text fill="#333333" font-family="sans-serif" font-size="11" lengthAdjust="spacingAndGlyphs" textLength="111" x="215" y="342.6245">bo_id_counter_ : int</text><rect fill="none" height="6" style="stroke: #C82930; stroke-width: 1.0;" width="6" x="206" y="349.2188"/><text fill="#333333" font-family="sans-serif" font-size="11" lengthAdjust="spacingAndGlyphs" textLength="107" x="215" y="355.4292">st_id_counter_ : int</text><rect fill="none" height="6" style="stroke: #C82930; stroke-width: 1.0;" width="6" x="206" y="362.0234"/><text fill="#333333" font-family="sans-serif" font-size="11" lengthAdjust="spacingAndGlyphs" textLength="156" x="215" y="368.2339">total_duration_start_ : Time</text><rect fill="none" height="6" style="stroke: #C82930; stroke-width: 1.0;" width="6" x="206" y="374.8281"/><text fill="#333333" font-family="sans-serif" font-size="11" lengthAdjust="spacingAndGlyphs" textLength="151" x="215" y="381.0386">total_duration_end_ : Time</text><text fill="#333333" font-family="sans-serif" font-size="11" lengthAdjust="spacingAndGlyphs" textLength="0" x="219" y="393.8433"/><rect fill="none" height="6" style="stroke: #C82930; stroke-width: 1.0;" width="6" x="206" y="400.4375"/><text fill="#333333" font-family="sans-serif" font-size="11" lengthAdjust="spacingAndGlyphs" textLength="100" x="215" y="406.6479">nh_ : NodeHandle</text><rect fill="none" height="6" style="stroke: #C82930; stroke-width: 1.0;" width="6" x="206" y="413.2422"/><text fill="#333333" font-family="sans-serif" font-size="11" lengthAdjust="spacingAndGlyphs" textLength="134" x="215" y="419.4526">pub_bo_log_ : Publisher</text><rect fill="none" height="6" style="stroke: #C82930; stroke-width: 1.0;" width="6" x="206" y="426.0469"/><text fill="#333333" font-family="sans-serif" font-size="11" lengthAdjust="spacingAndGlyphs" textLength="130" x="215" y="432.2573">pub_st_log_ : Publisher</text><text fill="#333333" font-family="sans-serif" font-size="11" lengthAdjust="spacingAndGlyphs" textLength="0" x="219" y="445.062"/><rect fill="none" height="6" style="stroke: #C82930; stroke-width: 1.0;" width="6" x="206" y="451.6563"/><text fill="#333333" font-family="sans-serif" font-size="11" lengthAdjust="spacingAndGlyphs" textLength="164" x="215" y="457.8667">listener_ : TransformListener</text><rect fill="none" height="6" style="stroke: #C82930; stroke-width: 1.0;" width="6" x="206" y="464.4609"/><text fill="#333333" font-family="sans-serif" font-size="11" lengthAdjust="spacingAndGlyphs" textLength="135" x="215" y="470.6714">tf_ : StampedTransform</text><line style="stroke: #AAAAAA; stroke-width: 1.5;" x1="199" x2="384" y1="477.2656" y2="477.2656"/><ellipse cx="209" cy="488.2656" fill="#84BE84" rx="3" ry="3" style="stroke: #038048; stroke-width: 1.0;"/><text fill="#333333" font-family="sans-serif" font-size="11" lengthAdjust="spacingAndGlyphs" textLength="104" x="215" y="491.4761">bo_log_init() : void</text><ellipse cx="209" cy="501.0703" fill="#84BE84" rx="3" ry="3" style="stroke: #038048; stroke-width: 1.0;"/><text fill="#333333" font-family="sans-serif" font-size="11" lengthAdjust="spacingAndGlyphs" textLength="100" x="215" y="504.2808">st_log_init() : void</text><ellipse cx="209" cy="513.875" fill="#84BE84" rx="3" ry="3" style="stroke: #038048; stroke-width: 1.0;"/><text fill="#333333" font-family="sans-serif" font-size="11" lengthAdjust="spacingAndGlyphs" textLength="107" x="215" y="517.0854">finalize_log() : void</text><!--MD5=[43c4151e81267cf1307535ede9ecbb20]
class LfeNavConfig--><rect fill="#CCCCCC" filter="url(#fzr038t2ziqcw)" height="106.0234" id="LfeNavConfig" style="stroke: #AAAAAA; stroke-width: 1.5;" width="246" x="420.5" y="341"/><ellipse cx="502.5" cy="354" fill="#1A66C2" rx="8" ry="8" style="stroke: #AAAAAA; stroke-width: 1.0;"/><path d="M505.375,357.4219 Q504.7969,357.7031 504.1719,357.8594 Q503.5625,358 502.8906,358 Q500.8906,358 499.7188,356.9219 Q498.5469,355.8438 498.5469,354 Q498.5469,352.1406 499.7188,351.0781 Q500.8906,350 502.8906,350 Q503.5625,350 504.1719,350.1563 Q504.7969,350.2969 505.375,350.5781 L505.375,352.1719 Q504.7969,351.8125 504.2344,351.6406 Q503.6719,351.4531 503.0625,351.4531 Q501.9531,351.4531 501.3125,352.1406 Q500.6875,352.8125 500.6875,354 Q500.6875,355.1875 501.3125,355.8594 Q501.9531,356.5313 503.0625,356.5313 Q503.6719,356.5313 504.2344,356.3594 Q504.7969,356.1719 505.375,355.8125 L505.375,357.4219 Z "/><text fill="#000000" font-family="Verdana" font-size="11" lengthAdjust="spacingAndGlyphs" textLength="75" x="518.5" y="357.8081">LfeNavConfig</text><line style="stroke: #AAAAAA; stroke-width: 1.5;" x1="421.5" x2="665.5" y1="367" y2="367"/><ellipse cx="431.5" cy="378" fill="none" rx="3" ry="3" style="stroke: #038048; stroke-width: 1.0;"/><text fill="#333333" font-family="sans-serif" font-size="11" lengthAdjust="spacingAndGlyphs" textLength="131" x="437.5" y="381.2104">navigation : Navigation</text><ellipse cx="431.5" cy="390.8047" fill="none" rx="3" ry="3" style="stroke: #038048; stroke-width: 1.0;"/><text fill="#333333" font-family="sans-serif" font-size="11" lengthAdjust="spacingAndGlyphs" textLength="160" x="437.5" y="394.0151">hri : HumanRobotInteraction</text><ellipse cx="431.5" cy="403.6094" fill="none" rx="3" ry="3" style="stroke: #038048; stroke-width: 1.0;"/><text fill="#333333" font-family="sans-serif" font-size="11" lengthAdjust="spacingAndGlyphs" textLength="99" x="437.5" y="406.8198">backOff : BackOff</text><line style="stroke: #AAAAAA; stroke-width: 1.5;" x1="421.5" x2="665.5" y1="413.4141" y2="413.4141"/><ellipse cx="431.5" cy="424.4141" fill="#84BE84" rx="3" ry="3" style="stroke: #038048; stroke-width: 1.0;"/><text fill="#333333" font-family="sans-serif" font-size="11" lengthAdjust="spacingAndGlyphs" textLength="223" x="437.5" y="427.6245">loadRosParamFromNodeHandle() : void</text><ellipse cx="431.5" cy="437.2188" fill="#84BE84" rx="3" ry="3" style="stroke: #038048; stroke-width: 1.0;"/><text fill="#333333" font-family="sans-serif" font-size="11" lengthAdjust="spacingAndGlyphs" textLength="109" x="437.5" y="440.4292">reconfigure() : void</text><!--MD5=[cf6e0a6b8083ba72f4a55905082c92ea]
class Navigation--><rect fill="#CCCCCC" filter="url(#fzr038t2ziqcw)" height="195.6563" id="Navigation" style="stroke: #AAAAAA; stroke-width: 1.5;" width="160" x="240.5" y="8"/><ellipse cx="287" cy="21" fill="#1A66C2" rx="8" ry="8" style="stroke: #AAAAAA; stroke-width: 1.0;"/><path d="M289.875,24.4219 Q289.2969,24.7031 288.6719,24.8594 Q288.0625,25 287.3906,25 Q285.3906,25 284.2188,23.9219 Q283.0469,22.8438 283.0469,21 Q283.0469,19.1406 284.2188,18.0781 Q285.3906,17 287.3906,17 Q288.0625,17 288.6719,17.1563 Q289.2969,17.2969 289.875,17.5781 L289.875,19.1719 Q289.2969,18.8125 288.7344,18.6406 Q288.1719,18.4531 287.5625,18.4531 Q286.4531,18.4531 285.8125,19.1406 Q285.1875,19.8125 285.1875,21 Q285.1875,22.1875 285.8125,22.8594 Q286.4531,23.5313 287.5625,23.5313 Q288.1719,23.5313 288.7344,23.3594 Q289.2969,23.1719 289.875,22.8125 L289.875,24.4219 Z "/><text fill="#000000" font-family="Verdana" font-size="11" lengthAdjust="spacingAndGlyphs" textLength="60" x="303" y="24.8081">Navigation</text><line style="stroke: #AAAAAA; stroke-width: 1.5;" x1="241.5" x2="399.5" y1="34" y2="34"/><text fill="#333333" font-family="sans-serif" font-size="11" lengthAdjust="spacingAndGlyphs" textLength="120" x="246.5" y="48.2104">goal1_pos_x : double</text><text fill="#333333" font-family="sans-serif" font-size="11" lengthAdjust="spacingAndGlyphs" textLength="120" x="246.5" y="61.0151">goal1_pos_y : double</text><text fill="#333333" font-family="sans-serif" font-size="11" lengthAdjust="spacingAndGlyphs" textLength="119" x="246.5" y="73.8198">goal1_pos_z : double</text><text fill="#333333" font-family="sans-serif" font-size="11" lengthAdjust="spacingAndGlyphs" textLength="148" x="246.5" y="86.6245">goal1_orientation : double</text><text fill="#333333" font-family="sans-serif" font-size="11" lengthAdjust="spacingAndGlyphs" textLength="120" x="246.5" y="99.4292">goal2_pos_x : double</text><text fill="#333333" font-family="sans-serif" font-size="11" lengthAdjust="spacingAndGlyphs" textLength="120" x="246.5" y="112.2339">goal2_pos_y : double</text><text fill="#333333" font-family="sans-serif" font-size="11" lengthAdjust="spacingAndGlyphs" textLength="119" x="246.5" y="125.0386">goal2_pos_z : double</text><text fill="#333333" font-family="sans-serif" font-size="11" lengthAdjust="spacingAndGlyphs" textLength="148" x="246.5" y="137.8433">goal2_orientation : double</text><text fill="#333333" font-family="sans-serif" font-size="11" lengthAdjust="spacingAndGlyphs" textLength="120" x="246.5" y="150.6479">goal3_pos_x : double</text><text fill="#333333" font-family="sans-serif" font-size="11" lengthAdjust="spacingAndGlyphs" textLength="120" x="246.5" y="163.4526">goal3_pos_y : double</text><text fill="#333333" font-family="sans-serif" font-size="11" lengthAdjust="spacingAndGlyphs" textLength="119" x="246.5" y="176.2573">goal3_pos_z : double</text><text fill="#333333" font-family="sans-serif" font-size="11" lengthAdjust="spacingAndGlyphs" textLength="148" x="246.5" y="189.062">goal3_orientation : double</text><line style="stroke: #AAAAAA; stroke-width: 1.5;" x1="241.5" x2="399.5" y1="195.6563" y2="195.6563"/><!--MD5=[2b242428b1a0723b35d0f7c363361106]
class HumanRobotInteraction--><rect fill="#CCCCCC" filter="url(#fzr038t2ziqcw)" height="93.2188" id="HumanRobotInteraction" style="stroke: #AAAAAA; stroke-width: 1.5;" width="215" x="436" y="59.5"/><ellipse cx="473.5" cy="72.5" fill="#1A66C2" rx="8" ry="8" style="stroke: #AAAAAA; stroke-width: 1.0;"/><path d="M476.375,75.9219 Q475.7969,76.2031 475.1719,76.3594 Q474.5625,76.5 473.8906,76.5 Q471.8906,76.5 470.7188,75.4219 Q469.5469,74.3438 469.5469,72.5 Q469.5469,70.6406 470.7188,69.5781 Q471.8906,68.5 473.8906,68.5 Q474.5625,68.5 475.1719,68.6563 Q475.7969,68.7969 476.375,69.0781 L476.375,70.6719 Q475.7969,70.3125 475.2344,70.1406 Q474.6719,69.9531 474.0625,69.9531 Q472.9531,69.9531 472.3125,70.6406 Q471.6875,71.3125 471.6875,72.5 Q471.6875,73.6875 472.3125,74.3594 Q472.9531,75.0313 474.0625,75.0313 Q474.6719,75.0313 475.2344,74.8594 Q475.7969,74.6719 476.375,74.3125 L476.375,75.9219 Z "/><text fill="#000000" font-family="Verdana" font-size="11" lengthAdjust="spacingAndGlyphs" textLength="133" x="489.5" y="76.3081">HumanRobotInteraction</text><line style="stroke: #AAAAAA; stroke-width: 1.5;" x1="437" x2="650" y1="85.5" y2="85.5"/><text fill="#333333" font-family="sans-serif" font-size="11" lengthAdjust="spacingAndGlyphs" textLength="79" x="442" y="99.7104">backOff : bool</text><text fill="#333333" font-family="sans-serif" font-size="11" lengthAdjust="spacingAndGlyphs" textLength="102" x="442" y="112.5151">wait_duration : int</text><text fill="#333333" font-family="sans-serif" font-size="11" lengthAdjust="spacingAndGlyphs" textLength="168" x="442" y="125.3198">motion_cue_distance : double</text><text fill="#333333" font-family="sans-serif" font-size="11" lengthAdjust="spacingAndGlyphs" textLength="203" x="442" y="138.1245">human_motion_frame_distance : int</text><line style="stroke: #AAAAAA; stroke-width: 1.5;" x1="437" x2="650" y1="144.7188" y2="144.7188"/><!--MD5=[4b9ccf7313099acddb2a03590e44f444]
class BackOff--><rect fill="#CCCCCC" filter="url(#fzr038t2ziqcw)" height="67.6094" id="BackOff" style="stroke: #AAAAAA; stroke-width: 1.5;" width="141" x="686" y="72"/><ellipse cx="731" cy="85" fill="#1A66C2" rx="8" ry="8" style="stroke: #AAAAAA; stroke-width: 1.0;"/><path d="M733.875,88.4219 Q733.2969,88.7031 732.6719,88.8594 Q732.0625,89 731.3906,89 Q729.3906,89 728.2188,87.9219 Q727.0469,86.8438 727.0469,85 Q727.0469,83.1406 728.2188,82.0781 Q729.3906,81 731.3906,81 Q732.0625,81 732.6719,81.1563 Q733.2969,81.2969 733.875,81.5781 L733.875,83.1719 Q733.2969,82.8125 732.7344,82.6406 Q732.1719,82.4531 731.5625,82.4531 Q730.4531,82.4531 729.8125,83.1406 Q729.1875,83.8125 729.1875,85 Q729.1875,86.1875 729.8125,86.8594 Q730.4531,87.5313 731.5625,87.5313 Q732.1719,87.5313 732.7344,87.3594 Q733.2969,87.1719 733.875,86.8125 L733.875,88.4219 Z "/><text fill="#000000" font-family="Verdana" font-size="11" lengthAdjust="spacingAndGlyphs" textLength="44" x="747" y="88.8081">BackOff</text><line style="stroke: #AAAAAA; stroke-width: 1.5;" x1="687" x2="826" y1="98" y2="98"/><text fill="#333333" font-family="sans-serif" font-size="11" lengthAdjust="spacingAndGlyphs" textLength="126" x="692" y="112.2104">back_velocity : double</text><text fill="#333333" font-family="sans-serif" font-size="11" lengthAdjust="spacingAndGlyphs" textLength="129" x="692" y="125.0151">back_duration : double</text><line style="stroke: #AAAAAA; stroke-width: 1.5;" x1="687" x2="826" y1="131.6094" y2="131.6094"/><!--MD5=[7ff0776bce3ee43f10abef4019a4c6c5]
reverse link Navigation to LfeNavConfig--><path d="M399.463,208.271 C434.446,253.137 474.113,304.01 502.949,340.993 " fill="none" id="Navigation&lt;-LfeNavConfig" style="stroke: #000000; stroke-width: 1.0;"/><polygon fill="#000000" points="396.309,204.226,398.6886,213.7831,399.3834,208.1691,404.9975,208.864,396.309,204.226" style="stroke: #000000; stroke-width: 1.0;"/><!--MD5=[952893a71dc7137194e0c54e27bc3a02]
reverse link HumanRobotInteraction to LfeNavConfig--><path d="M543.5,157.842 C543.5,209.37 543.5,288.711 543.5,340.741 " fill="none" id="HumanRobotInteraction&lt;-LfeNavConfig" style="stroke: #000000; stroke-width: 1.0;"/><polygon fill="#000000" points="543.5,152.634,539.5,161.634,543.5,157.634,547.5,161.634,543.5,152.634" style="stroke: #000000; stroke-width: 1.0;"/><!--MD5=[972a949f84864d22b4ea40518c4a448f]
reverse link BackOff to LfeNavConfig--><path d="M728.777,144.225 C691.401,194.409 624.666,284.016 582.315,340.882 " fill="none" id="BackOff&lt;-LfeNavConfig" style="stroke: #000000; stroke-width: 1.0;"/><polygon fill="#000000" points="731.858,140.087,723.2737,144.915,728.871,144.0967,729.6893,149.6941,731.858,140.087" style="stroke: #000000; stroke-width: 1.0;"/><!--MD5=[e4c6c04cf623a0f3b2c1805f82c85845]
reverse link LfeNavConfig to DynamicObstacleListener--><path d="M509.309,452.053 C488.297,487.114 459.835,534.607 430.424,583.684 " fill="none" id="LfeNavConfig&lt;-DynamicObstacleListener" style="stroke: #000000; stroke-width: 1.0;"/><polygon fill="#000000" points="512.094,447.406,504.0366,453.0698,509.5238,451.6949,510.8988,457.1821,512.094,447.406" style="stroke: #000000; stroke-width: 1.0;"/><!--MD5=[58beba3c1605016a8b41167a357770e5]
reverse link NavigationManager to DynamicObstacleListener--><path d="M150.223,528.511 C158.951,546.24 168.094,564.814 177.352,583.621 " fill="none" id="NavigationManager&lt;-DynamicObstacleListener" style="stroke: #000000; stroke-width: 1.0;"/><polygon fill="#000000" points="148.014,524.022,148.3983,533.8634,150.2214,528.5083,155.5765,530.3314,148.014,524.022" style="stroke: #000000; stroke-width: 1.0;"/><!--MD5=[9c8629864aeaebed1121106baf1b06c9]
reverse link LfeNavLogger to DynamicObstacleListener--><path d="M291.5,529.413 C291.5,546.87 291.5,565.133 291.5,583.621 " fill="none" id="LfeNavLogger&lt;-DynamicObstacleListener" style="stroke: #000000; stroke-width: 1.0;"/><polygon fill="#000000" points="291.5,524.022,287.5,533.022,291.5,529.022,295.5,533.022,291.5,524.022" style="stroke: #000000; stroke-width: 1.0;"/><!--MD5=[089d43fa05d79c4998d52987c0111525]
@startuml





skinparam stereotypeCBackgroundColor 1a66c2







skinparam backgroundColor fff








skinparam circledCharacter {
  radius 8
  fontSize 11
  fontName Verdana
}

skinparam class {
    backgroundColor ccc
  borderColor aaa
    fontColor 000
  fontName Verdana
  fontSize 11
  stereotypeFontColor 333
  stereotypeFontSize 11
    arrowColor 000
  arrowFontName Verdana
  arrowFontColor 333
  arrowFontSize 11

  attributeFontColor 333
  attributeFontSize 11
  attributeIconSize 11
}


skinparam actor {
    backgroundColor 2a86e2
  borderColor 1a66c2
    fontColor 000
  fontName Verdana
  fontSize 11
  stereotypeFontColor 333
  stereotypeFontSize 11
}

skinparam participant {
    backgroundColor ccc
  borderColor aaa
    fontColor 000
  fontName Verdana
  fontSize 11
  stereotypeFontColor 333
  stereotypeFontSize 11
}

skinparam collections {
    backgroundColor ccc
  borderColor aaa
    fontColor 000
  fontName Verdana
  fontSize 11
  stereotypeFontColor 333
  stereotypeFontSize 11
}

skinparam SequenceBox{
    backgroundColor e0e0e0
  borderColor cccccc
    fontColor 000
  fontName Verdana
  fontSize 11
  stereotypeFontColor 333
  stereotypeFontSize 11
}


skinparam interface {
    backgroundColor 2a86e2
  borderColor 1a66c2
    fontColor 000
  fontName Verdana
  fontSize 11
  stereotypeFontColor 333
  stereotypeFontSize 11
}

skinparam component {
    backgroundColor ccc
  borderColor aaa
    fontColor 000
  fontName Verdana
  fontSize 11
  stereotypeFontColor 333
  stereotypeFontSize 11
}

skinparam node {
    backgroundColor ccc
  borderColor aaa
    fontColor 000
  fontName Verdana
  fontSize 11
  stereotypeFontColor 333
  stereotypeFontSize 11
}

skinparam database {
    backgroundColor ccc
  borderColor aaa
    fontColor 000
  fontName Verdana
  fontSize 11
  stereotypeFontColor 333
  stereotypeFontSize 11
}

skinparam queue {
    backgroundColor ccc
  borderColor aaa
    fontColor 000
  fontName Verdana
  fontSize 11
  stereotypeFontColor 333
  stereotypeFontSize 11
}


skinparam usecase {
    backgroundColor ccc
  borderColor aaa
    fontColor 000
  fontName Verdana
  fontSize 11
  stereotypeFontColor 333
  stereotypeFontSize 11
    arrowColor 000
  arrowFontName Verdana
  arrowFontColor 333
  arrowFontSize 11
}

skinparam activity {
    backgroundColor ccc
  borderColor aaa
    fontColor 000
  fontName Verdana
  fontSize 11
  stereotypeFontColor 333
  stereotypeFontSize 11
    arrowColor 000
  arrowFontName Verdana
  arrowFontColor 333
  arrowFontSize 11
}

skinparam sequence {
    fontColor 000
  fontName Verdana
  fontSize 11
  stereotypeFontColor 333
  stereotypeFontSize 11
    arrowColor 000
  arrowFontName Verdana
  arrowFontColor 333
  arrowFontSize 11

  lifeLineBorderColor 2a86e2
  lifeLineBackgroundColor e0e0e0
}

skinparam boundary {
    backgroundColor 2a86e2
  borderColor 1a66c2
    fontColor 000
  fontName Verdana
  fontSize 11
  stereotypeFontColor 333
  stereotypeFontSize 11
}

skinparam control {
    backgroundColor 2a86e2
  borderColor 1a66c2
    fontColor 000
  fontName Verdana
  fontSize 11
  stereotypeFontColor 333
  stereotypeFontSize 11
}

skinparam entity {
    backgroundColor 2a86e2
  borderColor 1a66c2
    fontColor 000
  fontName Verdana
  fontSize 11
  stereotypeFontColor 333
  stereotypeFontSize 11
}


skinparam state {
    backgroundColor ccc
  borderColor aaa
    fontColor 000
  fontName Verdana
  fontSize 11
  stereotypeFontColor 333
  stereotypeFontSize 11
    arrowColor 000
  arrowFontName Verdana
  arrowFontColor 333
  arrowFontSize 11
  startColor 2a86e2
  endColor 1a66c2
}


skinparam object {
    backgroundColor ccc
  borderColor aaa
    fontColor 000
  fontName Verdana
  fontSize 11
  stereotypeFontColor 333
  stereotypeFontSize 11
    arrowColor 000
  arrowFontName Verdana
  arrowFontColor 333
  arrowFontSize 11
}


skinparam note {
    backgroundColor 2a86e2
  borderColor 1a66c2
    fontColor 000
  fontName Verdana
  fontSize 11
  stereotypeFontColor 333
  stereotypeFontSize 11
}

skinparam cloud {
    backgroundColor ccc
  borderColor aaa
    fontColor 000
  fontName Verdana
  fontSize 11
  stereotypeFontColor 333
  stereotypeFontSize 11
    arrowColor 000
  arrowFontName Verdana
  arrowFontColor 333
  arrowFontSize 11
}

skinparam rectangle {
    backgroundColor ccc
  borderColor aaa
    fontColor 000
  fontName Verdana
  fontSize 11
  stereotypeFontColor 333
  stereotypeFontSize 11
}

skinparam storage {
    backgroundColor ccc
  borderColor aaa
    fontColor 000
  fontName Verdana
  fontSize 11
  stereotypeFontColor 333
  stereotypeFontSize 11
}


class DynamicObstacleListener {
        -body_received_ : bool
        -ready_to_continue_ : bool
        -paused_ : bool

        -backOff_ : bool
        -human_dist_decrease_ : bool
        -body_not_received_count_ : int
        -pxl_lknee_x_ : int
        -pxl_lknee_y_ : int

        -navigationManager_ : NavigationManager

        -lfeNavLogger_ : LfeNavLogger
        -human_robot_distance_ : double
        -current_robot_vel_ : double
        -human_dist_seq_ : vector<double>
        -human_dist_time_seq_ : vector<double>
        -robot_vel_seq_ : vector<double>
        -human_mc_dist_seq_ : vector<double>
        -human_mc_dist_time_seq_ : vector<double>

        -cfg_ : LfeNavConfig
        -reconfigure_server_ : shared_ptr<ReconfigureServer>
        -config_init_ : bool
        -avg_img_depth_seq_ : vector<double>

        -setMotionCue() : void
        -subscriberLoop() : void
        -loop() : void
        -newBodyMsgCallback() : void
        -newVelocityCallback() : void
        -newDepthCallback() : void
        -configCb() : void
        -executeMotionCue() : void
}

class NavigationManager{

        +sendGoal() : void
        +stopGoal() : void
        +backOff() : void
        +continueGoal() : void

        +setGoal1() : void
        +setGoal2() : void
        +setGoal3() : void

        -count_ : int
        -paused_ : bool
        -sendingGoal_ : bool
        -pub_vel_bo_ : Publisher

        -ac_ : MoveBaseClient
        -goal1_ : MoveBaseGoal
        -goal2_ : MoveBaseGoal
        -goal3_ : MoveBaseGoal

}

class LfeNavLogger{
    +bo_log_init() : void
    +st_log_init() : void
    +finalize_log() : void

    -bo_log_msg_ : BOLogMsg
    -st_log_msg_ : STLogMsg

    -bo_id_counter_ : int
    -st_id_counter_ : int
    -total_duration_start_ : Time
    -total_duration_end_ : Time

    -nh_ : NodeHandle
    -pub_bo_log_ : Publisher
    -pub_st_log_ : Publisher

    -listener_ : TransformListener
    -tf_ : StampedTransform

}

class LfeNavConfig{
 +navigation : Navigation
 +hri : HumanRobotInteraction
 +backOff : BackOff

 +loadRosParamFromNodeHandle() : void
 +reconfigure() : void
}

class Navigation {
    goal1_pos_x : double
    goal1_pos_y : double
    goal1_pos_z : double
    goal1_orientation : double
    goal2_pos_x : double
    goal2_pos_y : double
    goal2_pos_z : double
    goal2_orientation : double
    goal3_pos_x : double
    goal3_pos_y : double
    goal3_pos_z : double
    goal3_orientation : double
}

class HumanRobotInteraction {
    backOff : bool
    wait_duration : int
    motion_cue_distance : double
    human_motion_frame_distance : int
}

class BackOff {
    back_velocity : double
    back_duration : double
}

Navigation <- - LfeNavConfig
HumanRobotInteraction <- - LfeNavConfig
BackOff <- - LfeNavConfig
LfeNavConfig <- - DynamicObstacleListener
NavigationManager <- - DynamicObstacleListener
LfeNavLogger <- - DynamicObstacleListener


@enduml

PlantUML version 1.2020.09(Sun May 10 12:51:06 CEST 2020)
(GPL source distribution)
Java Runtime: OpenJDK Runtime Environment
JVM: OpenJDK 64-Bit Server VM
Java Version: 11.0.7+10-b944.20
Operating System: Linux
Default Encoding: UTF-8
Language: en
Country: US
--></g></svg>